<svg version="1.1" xmlns="http://www.w3.org/2000/svg" xmlns:xlink="http://www.w3.org/1999/xlink" height="80px" viewBox="0 0 744 761">
<path d="M416.86 61.39c20.64-48.91 75.9-73.3 126.07-55.66 50.17 17.64 77.87 71.22 63.2 122.23-14.67 51-66.64 81.77-118.56 70.2l-53.3 125.46c4.77 3.69 9.01 8 12.63 12.82l144.09-85.11a77.27 77.27 0 0 1 46.75-83.49c37.43-15.1 80.2 1.08 98.17 37.14a76.97 76.97 0 0 1-29.59 100.49 77.38 77.38 0 0 1-102.71-21.73l-144.09 85.12a51.3 51.3 0 0 1 0 18.07l141.67 59.81a58.54 58.54 0 0 1 68.96-16.67 59.54 59.54 0 0 1 33.85 72.5 59.74 59.74 0 0 1-68.98 40.78 59.6 59.6 0 0 1-47.5-64.42l-141.68-60.05a67.95 67.95 0 0 1-12.97 12.7l49.56 122.09c53.35-11.99 107 18.8 123.44 70.83 16.44 52.03-9.82 107.94-60.42 128.63-50.6 20.7-108.65-.72-133.56-49.28-24.91-48.56-8.38-108.06 38.05-136.9l-49.45-121.72c-6.05.82-12.18.82-18.23 0l-43.7 143.58a54.94 54.94 0 0 1 8.48 73.05 55.26 55.26 0 0 1-71.91 16.23 54.97 54.97 0 0 1-23.88-69.58 55.07 55.07 0 0 1 54.94-33.58l43.8-143.7a67.82 67.82 0 0 1-12.74-12.94L233.7 460.4c12.82 56.03-19.64 112.5-74.6 129.76-54.97 17.26-114-10.49-135.67-63.75-21.66-53.26 1.31-114.2 52.8-140.01 51.48-25.82 114.2-7.88 144.15 41.23l103.8-42.32a67.58 67.58 0 0 1 0-18.2l-201.64-84.18a68.61 68.61 0 0 1-91.26 15.35 68.23 68.23 0 0 1-23.29-89.35 68.58 68.58 0 0 1 87.2-30.94 67.48 67.48 0 0 1 41.03 72.53l201.86 85a67.13 67.13 0 0 1 12.86-12.6l-68.38-168.6c-36.22 4.99-70.2-18.63-78.07-54.24a69.94 69.94 0 0 1 47.98-81.96 70.18 70.18 0 0 1 85.73 41.18 68.8 68.8 0 0 1-23.38 81.62l68.62 168.83c6-.81 12.1-.81 18.11 0l52.6-125.23A100.25 100.25 0 0 1 416.86 61.4zm-316.6 192.58a34.5 34.5 0 1 0-63.5-26.95 34.5 34.5 0 0 0 63.5 26.95zm95.35 202.61l.12.12a72.77 72.77 0 0 0-39.62-39.93C123.8 403.2 86.37 414.2 66.69 443a72.62 72.62 0 0 0 8.46 92.23 73.87 73.87 0 0 0 92.72 9.76 72.72 72.72 0 0 0 27.74-88.42zm114.85 154.03a20.5 20.5 0 1 0-15.92 37.79 20.5 20.5 0 0 0 15.92-37.79zM479.08 592a69.99 69.99 0 1 0 90.65 38.38 70 70 0 0 0-90.65-38.38zm9.68 26.04a42.5 42.5 0 1 0 31.46 78.95 42.5 42.5 0 0 0-31.46-78.95zm167.8-155.1h.1a24.9 24.9 0 0 0-19.21 0A24.98 24.98 0 0 0 647 511a25 25 0 0 0 9.55-48.07zm-6.7-183.29a42.3 42.3 0 0 0 32.54.2 42.46 42.46 0 0 0 .71-78.46 42.53 42.53 0 0 0-46.4 8.8 42.44 42.44 0 0 0-9.6 46.2 42.25 42.25 0 0 0 22.74 23.26zM403.8 348.51a31.49 31.49 0 1 0-24.62 57.96 31.49 31.49 0 0 0 24.62-57.96zm131.1-307.4a65.6 65.6 0 0 0-85.82 35.1 65.48 65.48 0 1 0 120.78 50.65 65.5 65.5 0 0 0-34.95-85.74z"/>
</svg>
